<svg xmlns="http://www.w3.org/2000/svg" width="1200" height="400" viewBox="0 0 1200 400">
  <defs>
    <linearGradient id="bg" x1="0%" y1="0%" x2="100%" y2="100%">
      <stop offset="0%" style="stop-color:#081B2E"/>
      <stop offset="50%" style="stop-color:#0F2B46"/>
      <stop offset="100%" style="stop-color:#0A2A4A"/>
    </linearGradient>
    <radialGradient id="orb" cx="75%" cy="50%" r="40%">
      <stop offset="0%" style="stop-color:#2E9B87;stop-opacity:0.16"/>
      <stop offset="100%" style="stop-color:#2E9B87;stop-opacity:0"/>
    </radialGradient>
  </defs>
  <rect width="1200" height="400" fill="url(#bg)"/>
  <rect width="1200" height="400" fill="url(#orb)"/>
  <!-- Dot grid pattern -->
  <g opacity="0.05">
    <circle cx="80" cy="40" r="2" fill="white"/>
    <circle cx="160" cy="40" r="2" fill="white"/>
    <circle cx="240" cy="40" r="2" fill="white"/>
    <circle cx="320" cy="40" r="2" fill="white"/>
    <circle cx="400" cy="40" r="2" fill="white"/>
    <circle cx="480" cy="40" r="2" fill="white"/>
    <circle cx="560" cy="40" r="2" fill="white"/>
    <circle cx="640" cy="40" r="2" fill="white"/>
    <circle cx="720" cy="40" r="2" fill="white"/>
    <circle cx="800" cy="40" r="2" fill="white"/>
    <circle cx="880" cy="40" r="2" fill="white"/>
    <circle cx="960" cy="40" r="2" fill="white"/>
    <circle cx="1040" cy="40" r="2" fill="white"/>
    <circle cx="1120" cy="40" r="2" fill="white"/>
    <circle cx="80" cy="120" r="2" fill="white"/>
    <circle cx="160" cy="120" r="2" fill="white"/>
    <circle cx="240" cy="120" r="2" fill="white"/>
    <circle cx="320" cy="120" r="2" fill="white"/>
    <circle cx="400" cy="120" r="2" fill="white"/>
    <circle cx="480" cy="120" r="2" fill="white"/>
    <circle cx="560" cy="120" r="2" fill="white"/>
    <circle cx="640" cy="120" r="2" fill="white"/>
    <circle cx="720" cy="120" r="2" fill="white"/>
    <circle cx="800" cy="120" r="2" fill="white"/>
    <circle cx="880" cy="120" r="2" fill="white"/>
    <circle cx="960" cy="120" r="2" fill="white"/>
    <circle cx="1040" cy="120" r="2" fill="white"/>
    <circle cx="1120" cy="120" r="2" fill="white"/>
    <circle cx="80" cy="200" r="2" fill="white"/>
    <circle cx="160" cy="200" r="2" fill="white"/>
    <circle cx="240" cy="200" r="2" fill="white"/>
    <circle cx="320" cy="200" r="2" fill="white"/>
    <circle cx="400" cy="200" r="2" fill="white"/>
    <circle cx="480" cy="200" r="2" fill="white"/>
    <circle cx="560" cy="200" r="2" fill="white"/>
    <circle cx="640" cy="200" r="2" fill="white"/>
    <circle cx="720" cy="200" r="2" fill="white"/>
    <circle cx="800" cy="200" r="2" fill="white"/>
    <circle cx="880" cy="200" r="2" fill="white"/>
    <circle cx="960" cy="200" r="2" fill="white"/>
    <circle cx="1040" cy="200" r="2" fill="white"/>
    <circle cx="1120" cy="200" r="2" fill="white"/>
    <circle cx="80" cy="280" r="2" fill="white"/>
    <circle cx="160" cy="280" r="2" fill="white"/>
    <circle cx="240" cy="280" r="2" fill="white"/>
    <circle cx="320" cy="280" r="2" fill="white"/>
    <circle cx="400" cy="280" r="2" fill="white"/>
    <circle cx="480" cy="280" r="2" fill="white"/>
    <circle cx="560" cy="280" r="2" fill="white"/>
    <circle cx="640" cy="280" r="2" fill="white"/>
    <circle cx="720" cy="280" r="2" fill="white"/>
    <circle cx="800" cy="280" r="2" fill="white"/>
    <circle cx="880" cy="280" r="2" fill="white"/>
    <circle cx="960" cy="280" r="2" fill="white"/>
    <circle cx="1040" cy="280" r="2" fill="white"/>
    <circle cx="1120" cy="280" r="2" fill="white"/>
    <circle cx="80" cy="360" r="2" fill="white"/>
    <circle cx="160" cy="360" r="2" fill="white"/>
    <circle cx="240" cy="360" r="2" fill="white"/>
    <circle cx="320" cy="360" r="2" fill="white"/>
    <circle cx="400" cy="360" r="2" fill="white"/>
    <circle cx="480" cy="360" r="2" fill="white"/>
    <circle cx="560" cy="360" r="2" fill="white"/>
    <circle cx="640" cy="360" r="2" fill="white"/>
    <circle cx="720" cy="360" r="2" fill="white"/>
    <circle cx="800" cy="360" r="2" fill="white"/>
    <circle cx="880" cy="360" r="2" fill="white"/>
    <circle cx="960" cy="360" r="2" fill="white"/>
    <circle cx="1040" cy="360" r="2" fill="white"/>
    <circle cx="1120" cy="360" r="2" fill="white"/>
  </g>
  <rect x="80" y="240" width="50" height="3" rx="1.5" fill="#2E9B87"/>
  <text x="80" y="220" font-family="system-ui,-apple-system,sans-serif" font-weight="800" font-size="56" fill="white">Visa Processing</text>
  <text x="80" y="290" font-family="system-ui,-apple-system,sans-serif" font-weight="400" font-size="20" fill="#94A3B8">ZETUP Corporate Services</text>
  <rect x="0" y="0" width="1200" height="2" fill="#2E9B87" opacity="0.3"/>
  <rect x="0" y="398" width="1200" height="2" fill="#2E9B87" opacity="0.3"/>
</svg>