<svg xmlns="http://www.w3.org/2000/svg" width="1200" height="400" viewBox="0 0 1200 400">
  <defs>
    <linearGradient id="bg" x1="0%" y1="0%" x2="100%" y2="100%">
      <stop offset="0%" style="stop-color:#081B2E"/>
      <stop offset="50%" style="stop-color:#0F2B46"/>
      <stop offset="100%" style="stop-color:#0A2A4A"/>
    </linearGradient>
    <radialGradient id="orb" cx="75%" cy="40%" r="38%">
      <stop offset="0%" style="stop-color:#D4793E;stop-opacity:0.14"/>
      <stop offset="100%" style="stop-color:#D4793E;stop-opacity:0"/>
    </radialGradient>
  </defs>
  <rect width="1200" height="400" fill="url(#bg)"/>
  <rect width="1200" height="400" fill="url(#orb)"/>
  <!-- Dot grid -->
  <g opacity="0.04">
    <circle cx="100" cy="50" r="1.5" fill="white"/>
    <circle cx="200" cy="50" r="1.5" fill="white"/>
    <circle cx="300" cy="50" r="1.5" fill="white"/>
    <circle cx="400" cy="50" r="1.5" fill="white"/>
    <circle cx="500" cy="50" r="1.5" fill="white"/>
    <circle cx="600" cy="50" r="1.5" fill="white"/>
    <circle cx="700" cy="50" r="1.5" fill="white"/>
    <circle cx="800" cy="50" r="1.5" fill="white"/>
    <circle cx="900" cy="50" r="1.5" fill="white"/>
    <circle cx="1000" cy="50" r="1.5" fill="white"/>
    <circle cx="1100" cy="50" r="1.5" fill="white"/>
    <circle cx="100" cy="150" r="1.5" fill="white"/>
    <circle cx="200" cy="150" r="1.5" fill="white"/>
    <circle cx="300" cy="150" r="1.5" fill="white"/>
    <circle cx="400" cy="150" r="1.5" fill="white"/>
    <circle cx="500" cy="150" r="1.5" fill="white"/>
    <circle cx="600" cy="150" r="1.5" fill="white"/>
    <circle cx="700" cy="150" r="1.5" fill="white"/>
    <circle cx="800" cy="150" r="1.5" fill="white"/>
    <circle cx="900" cy="150" r="1.5" fill="white"/>
    <circle cx="1000" cy="150" r="1.5" fill="white"/>
    <circle cx="1100" cy="150" r="1.5" fill="white"/>
    <circle cx="100" cy="250" r="1.5" fill="white"/>
    <circle cx="200" cy="250" r="1.5" fill="white"/>
    <circle cx="300" cy="250" r="1.5" fill="white"/>
    <circle cx="400" cy="250" r="1.5" fill="white"/>
    <circle cx="500" cy="250" r="1.5" fill="white"/>
    <circle cx="600" cy="250" r="1.5" fill="white"/>
    <circle cx="700" cy="250" r="1.5" fill="white"/>
    <circle cx="800" cy="250" r="1.5" fill="white"/>
    <circle cx="900" cy="250" r="1.5" fill="white"/>
    <circle cx="1000" cy="250" r="1.5" fill="white"/>
    <circle cx="1100" cy="250" r="1.5" fill="white"/>
    <circle cx="100" cy="350" r="1.5" fill="white"/>
    <circle cx="200" cy="350" r="1.5" fill="white"/>
    <circle cx="300" cy="350" r="1.5" fill="white"/>
    <circle cx="400" cy="350" r="1.5" fill="white"/>
    <circle cx="500" cy="350" r="1.5" fill="white"/>
    <circle cx="600" cy="350" r="1.5" fill="white"/>
    <circle cx="700" cy="350" r="1.5" fill="white"/>
    <circle cx="800" cy="350" r="1.5" fill="white"/>
    <circle cx="900" cy="350" r="1.5" fill="white"/>
    <circle cx="1000" cy="350" r="1.5" fill="white"/>
    <circle cx="1100" cy="350" r="1.5" fill="white"/>
  </g>
  <rect x="80" y="240" width="50" height="3" rx="1.5" fill="#D4793E"/>
  <text x="80" y="220" font-family="system-ui,-apple-system,sans-serif" font-weight="800" font-size="56" fill="white">Documents Required</text>
  <text x="80" y="290" font-family="system-ui,-apple-system,sans-serif" font-weight="400" font-size="20" fill="#94A3B8">ZETUP Corporate Services</text>
  <rect x="0" y="0" width="1200" height="2" fill="#D4793E" opacity="0.3"/>
  <rect x="0" y="398" width="1200" height="2" fill="#D4793E" opacity="0.3"/>
</svg>