<svg xmlns="http://www.w3.org/2000/svg" width="1200" height="400" viewBox="0 0 1200 400">
  <defs>
    <linearGradient id="bg" x1="0%" y1="0%" x2="100%" y2="100%">
      <stop offset="0%" style="stop-color:#081B2E"/>
      <stop offset="50%" style="stop-color:#0F2B46"/>
      <stop offset="100%" style="stop-color:#0A2A4A"/>
    </linearGradient>
    <radialGradient id="orb" cx="75%" cy="75%" r="40%">
      <stop offset="0%" style="stop-color:#D4793E;stop-opacity:0.16"/>
      <stop offset="100%" style="stop-color:#D4793E;stop-opacity:0"/>
    </radialGradient>
  </defs>
  <rect width="1200" height="400" fill="url(#bg)"/>
  <rect width="1200" height="400" fill="url(#orb)"/>
  <!-- Vertical lines -->
  <g opacity="0.03">
    <line x1="120" y1="0" x2="120" y2="400" stroke="white" stroke-width="1"/>
    <line x1="240" y1="0" x2="240" y2="400" stroke="white" stroke-width="1"/>
    <line x1="360" y1="0" x2="360" y2="400" stroke="white" stroke-width="1"/>
    <line x1="480" y1="0" x2="480" y2="400" stroke="white" stroke-width="1"/>
    <line x1="600" y1="0" x2="600" y2="400" stroke="white" stroke-width="1"/>
    <line x1="720" y1="0" x2="720" y2="400" stroke="white" stroke-width="1"/>
    <line x1="840" y1="0" x2="840" y2="400" stroke="white" stroke-width="1"/>
    <line x1="960" y1="0" x2="960" y2="400" stroke="white" stroke-width="1"/>
    <line x1="1080" y1="0" x2="1080" y2="400" stroke="white" stroke-width="1"/>
  </g>
  <rect x="80" y="240" width="50" height="3" rx="1.5" fill="#D4793E"/>
  <text x="80" y="220" font-family="system-ui,-apple-system,sans-serif" font-weight="800" font-size="52" fill="white">Corporate Tax Relief</text>
  <text x="80" y="290" font-family="system-ui,-apple-system,sans-serif" font-weight="400" font-size="20" fill="#94A3B8">ZETUP Corporate Services</text>
  <rect x="0" y="0" width="1200" height="2" fill="#D4793E" opacity="0.3"/>
  <rect x="0" y="398" width="1200" height="2" fill="#D4793E" opacity="0.3"/>
</svg>