<svg xmlns="http://www.w3.org/2000/svg" width="1200" height="400" viewBox="0 0 1200 400">
  <defs>
    <linearGradient id="bg" x1="0%" y1="0%" x2="100%" y2="100%">
      <stop offset="0%" style="stop-color:#081B2E"/>
      <stop offset="50%" style="stop-color:#0F2B46"/>
      <stop offset="100%" style="stop-color:#0A2A4A"/>
    </linearGradient>
    <radialGradient id="orb" cx="20%" cy="35%" r="40%">
      <stop offset="0%" style="stop-color:#2E9B87;stop-opacity:0.16"/>
      <stop offset="100%" style="stop-color:#2E9B87;stop-opacity:0"/>
    </radialGradient>
  </defs>
  <rect width="1200" height="400" fill="url(#bg)"/>
  <rect width="1200" height="400" fill="url(#orb)"/>
  <!-- Dotted diagonal -->
  <g opacity="0.04">
    <circle cx="100" cy="40" r="1.5" fill="white"/>
    <circle cx="150" cy="80" r="1.5" fill="white"/>
    <circle cx="200" cy="120" r="1.5" fill="white"/>
    <circle cx="250" cy="160" r="1.5" fill="white"/>
    <circle cx="300" cy="200" r="1.5" fill="white"/>
    <circle cx="350" cy="240" r="1.5" fill="white"/>
    <circle cx="400" cy="280" r="1.5" fill="white"/>
    <circle cx="450" cy="320" r="1.5" fill="white"/>
    <circle cx="500" cy="360" r="1.5" fill="white"/>
    <circle cx="600" cy="40" r="1.5" fill="white"/>
    <circle cx="650" cy="80" r="1.5" fill="white"/>
    <circle cx="700" cy="120" r="1.5" fill="white"/>
    <circle cx="750" cy="160" r="1.5" fill="white"/>
    <circle cx="800" cy="200" r="1.5" fill="white"/>
    <circle cx="850" cy="240" r="1.5" fill="white"/>
    <circle cx="900" cy="280" r="1.5" fill="white"/>
    <circle cx="950" cy="320" r="1.5" fill="white"/>
    <circle cx="1000" cy="360" r="1.5" fill="white"/>
  </g>
  <rect x="80" y="240" width="50" height="3" rx="1.5" fill="#2E9B87"/>
  <text x="80" y="220" font-family="system-ui,-apple-system,sans-serif" font-weight="800" font-size="52" fill="white">Free Zone Permit 2026</text>
  <text x="80" y="290" font-family="system-ui,-apple-system,sans-serif" font-weight="400" font-size="20" fill="#94A3B8">ZETUP Corporate Services</text>
  <rect x="0" y="0" width="1200" height="2" fill="#2E9B87" opacity="0.3"/>
  <rect x="0" y="398" width="1200" height="2" fill="#2E9B87" opacity="0.3"/>
</svg>