<svg xmlns="http://www.w3.org/2000/svg" width="1200" height="400" viewBox="0 0 1200 400">
  <defs>
    <linearGradient id="bg" x1="0%" y1="0%" x2="100%" y2="100%">
      <stop offset="0%" style="stop-color:#081B2E"/>
      <stop offset="50%" style="stop-color:#0F2B46"/>
      <stop offset="100%" style="stop-color:#0A2A4A"/>
    </linearGradient>
    <radialGradient id="orb" cx="60%" cy="45%" r="42%">
      <stop offset="0%" style="stop-color:#F7B96A;stop-opacity:0.18"/>
      <stop offset="50%" style="stop-color:#D4793E;stop-opacity:0.06"/>
      <stop offset="100%" style="stop-color:#D4793E;stop-opacity:0"/>
    </radialGradient>
  </defs>
  <rect width="1200" height="400" fill="url(#bg)"/>
  <rect width="1200" height="400" fill="url(#orb)"/>
  <!-- Diamond pattern -->
  <g opacity="0.035">
    <polygon points="700,60 740,100 700,140 660,100" stroke="white" stroke-width="1" fill="none"/>
    <polygon points="700,60 780,140 700,220 620,140" stroke="white" stroke-width="1" fill="none"/>
    <polygon points="700,60 820,180 700,300 580,180" stroke="white" stroke-width="1" fill="none"/>
    <polygon points="1000,200 1040,240 1000,280 960,240" stroke="white" stroke-width="1" fill="none"/>
    <polygon points="1000,200 1080,280 1000,360 920,280" stroke="white" stroke-width="1" fill="none"/>
  </g>
  <rect x="80" y="240" width="50" height="3" rx="1.5" fill="#F7B96A"/>
  <text x="80" y="220" font-family="system-ui,-apple-system,sans-serif" font-weight="800" font-size="56" fill="white">Golden Visa 2026</text>
  <text x="80" y="290" font-family="system-ui,-apple-system,sans-serif" font-weight="400" font-size="20" fill="#94A3B8">ZETUP Corporate Services</text>
  <rect x="0" y="0" width="1200" height="2" fill="#F7B96A" opacity="0.3"/>
  <rect x="0" y="398" width="1200" height="2" fill="#F7B96A" opacity="0.3"/>
</svg>